<svg width="203" height="180" viewBox="0 0 203 180" fill="none" xmlns="http://www.w3.org/2000/svg">
<g id="&#240;&#159;&#166;&#134; icon &#34;Shopping Cart Arrow Down&#34;">
<path id="Vector" d="M177.44 112.5H74.3808L76.6817 123.75H171.047C176.462 123.75 180.475 128.778 179.275 134.057L177.335 142.592C183.907 145.782 188.437 152.518 188.437 160.312C188.437 171.282 179.466 180.156 168.46 179.998C157.976 179.847 149.353 171.339 149.07 160.856C148.915 155.13 151.209 149.941 154.977 146.25H81.2728C84.921 149.824 87.1875 154.802 87.1875 160.312C87.1875 171.497 77.8612 180.503 66.5613 179.978C56.5277 179.512 48.3676 171.405 47.8403 161.375C47.4332 153.628 51.5092 146.801 57.7019 143.239L33.0057 22.5H8.4375C3.77754 22.5 0 18.7225 0 14.0625V8.4375C0 3.77754 3.77754 0 8.4375 0H44.4828C48.491 0 51.9458 2.81988 52.7491 6.74648L55.9715 22.5H194.059C199.473 22.5 203.486 27.5277 202.287 32.8075L185.667 105.932C184.794 109.774 181.379 112.5 177.44 112.5ZM141.69 67.5H126.562V46.4062C126.562 44.0764 124.674 42.1875 122.344 42.1875H113.906C111.576 42.1875 109.687 44.0764 109.687 46.4062V67.5H94.5601C90.8015 67.5 88.9193 72.0443 91.5771 74.7017L115.142 98.2666C116.789 99.914 119.461 99.914 121.108 98.2666L144.673 74.7017C147.331 72.0443 145.448 67.5 141.69 67.5Z" fill="#4486A3"/>
</g>
</svg>
