<svg width="233" height="207" viewBox="0 0 233 207" fill="none" xmlns="http://www.w3.org/2000/svg">
<g id="&#240;&#159;&#166;&#134; icon &#34;Alternate Map Marked&#34;">
<path id="Vector" d="M116.405 0C88.2778 0 65.4778 22.8 65.4778 50.9272C65.4778 73.6666 98.7624 115.112 111.514 130.155C114.097 133.203 118.717 133.203 121.296 130.155C134.048 115.112 167.332 73.6666 167.332 50.9272C167.332 22.8 144.532 0 116.405 0ZM116.405 67.9029C107.028 67.9029 99.4293 60.3043 99.4293 50.9272C99.4293 41.5501 107.028 33.9515 116.405 33.9515C125.782 33.9515 133.381 41.5501 133.381 50.9272C133.381 60.3043 125.782 67.9029 116.405 67.9029ZM8.13218 87.2835C5.73205 88.2435 3.67456 89.9006 2.22507 92.0409C0.775583 94.1813 0.000574834 96.7069 0 99.2919L0 200.467C0 205.043 4.61982 208.171 8.8678 206.473L64.6694 181.074V86.8672C61.0965 80.4084 58.1742 74.1193 56.0805 68.105L8.13218 87.2835ZM116.405 145.373C110.718 145.373 105.338 142.875 101.648 138.518C93.702 129.141 85.2505 118.462 77.6033 107.509V181.07L155.207 206.938V107.513C147.559 118.462 139.112 129.145 131.162 138.522C127.472 142.875 122.092 145.373 116.405 145.373ZM223.942 65.1383L168.141 90.5372V206.942L224.678 184.328C227.078 183.369 229.136 181.712 230.586 179.571C232.035 177.431 232.81 174.905 232.81 172.32V71.1445C232.81 66.5691 228.19 63.4407 223.942 65.1383Z" fill="#5C5C5C"/>
</g>
</svg>
