<svg width="121" height="120" viewBox="0 0 121 120" fill="none" xmlns="http://www.w3.org/2000/svg">
<g id="&#240;&#159;&#166;&#134; icon &#34;Instagram&#34;">
<path id="Vector" d="M60.0268 29.2335C42.9968 29.2335 29.2603 42.97 29.2603 60C29.2603 77.03 42.9968 90.7665 60.0268 90.7665C77.0568 90.7665 90.7933 77.03 90.7933 60C90.7933 42.97 77.0568 29.2335 60.0268 29.2335ZM60.0268 80.0022C49.0215 80.0022 40.0245 71.032 40.0245 60C40.0245 48.968 48.9948 39.9978 60.0268 39.9978C71.0588 39.9978 80.029 48.968 80.029 60C80.029 71.032 71.032 80.0022 60.0268 80.0022ZM99.2279 27.975C99.2279 31.9647 96.0147 35.1512 92.0518 35.1512C88.062 35.1512 84.8756 31.938 84.8756 27.975C84.8756 24.012 88.0888 20.7988 92.0518 20.7988C96.0147 20.7988 99.2279 24.012 99.2279 27.975ZM119.605 35.2583C119.15 25.6454 116.954 17.1304 109.912 10.1149C102.896 3.09941 94.3813 0.903715 84.7685 0.421734C74.8611 -0.140578 45.1657 -0.140578 35.2583 0.421734C25.6722 0.876939 17.1572 3.07263 10.1149 10.0881C3.07263 17.1036 0.903715 25.6187 0.421734 35.2315C-0.140578 45.1389 -0.140578 74.8343 0.421734 84.7417C0.876939 94.3546 3.07263 102.87 10.1149 109.885C17.1572 116.901 25.6454 119.096 35.2583 119.578C45.1657 120.141 74.8611 120.141 84.7685 119.578C94.3813 119.123 102.896 116.927 109.912 109.885C116.927 102.87 119.123 94.3546 119.605 84.7417C120.167 74.8343 120.167 45.1657 119.605 35.2583ZM106.806 95.3721C104.717 100.62 100.674 104.664 95.3989 106.779C87.4997 109.912 68.756 109.189 60.0268 109.189C51.2976 109.189 32.5271 109.885 24.6547 106.779C19.4064 104.69 15.3632 100.647 13.2478 95.3721C10.1149 87.4729 10.8379 68.7292 10.8379 60C10.8379 51.2708 10.1417 32.5003 13.2478 24.6279C15.3364 19.3797 19.3797 15.3364 24.6547 13.221C32.5538 10.0881 51.2976 10.8111 60.0268 10.8111C68.756 10.8111 87.5265 10.1149 95.3989 13.221C100.647 15.3096 104.69 19.3529 106.806 24.6279C109.939 32.5271 109.216 51.2708 109.216 60C109.216 68.7292 109.939 87.4997 106.806 95.3721Z" fill="black"/>
</g>
</svg>
