<svg width="247" height="164" viewBox="0 0 247 164" fill="none" xmlns="http://www.w3.org/2000/svg">
<g id="&#240;&#159;&#166;&#134; icon &#34;shopping-cart&#34;">
<path id="Vector" d="M226.385 96.0117L246.649 29.735C248.112 24.9497 243.219 20.3928 236.617 20.3928H68.2465L64.3173 6.11467C63.3383 2.5558 59.1254 0 54.2382 0H10.2879C4.60598 0 0 3.42377 0 7.64731V12.7455C0 16.9691 4.60598 20.3928 10.2879 20.3928H40.2441L70.3568 129.824C63.1527 132.904 58.2981 138.678 58.2981 145.299C58.2981 155.154 69.0455 163.143 82.3032 163.143C95.5608 163.143 106.308 155.154 106.308 145.299C106.308 140.305 103.545 135.792 99.0964 132.553H188.964C184.516 135.792 181.753 140.305 181.753 145.299C181.753 155.154 192.5 163.143 205.758 163.143C219.016 163.143 229.763 155.154 229.763 145.299C229.763 138.234 224.238 132.129 216.226 129.238L218.591 121.503C220.054 116.717 215.161 112.161 208.559 112.161H93.4985L90.6929 101.964H216.353C221.157 101.964 225.321 99.4935 226.385 96.0117Z" fill="#5C5C5C"/>
</g>
</svg>
