<svg width="208" height="210" viewBox="0 0 208 210" fill="none" xmlns="http://www.w3.org/2000/svg">
<g id="&#240;&#159;&#166;&#134; icon &#34;History&#34;">
<path id="Vector" d="M207.568 104.679C207.674 162.463 161.041 209.714 103.859 209.755C79.1625 209.772 56.4773 201.073 38.6503 186.533C34.0148 182.752 33.6683 175.732 37.8807 171.475L42.5958 166.71C46.1985 163.07 51.9501 162.671 55.9416 165.871C69.0758 176.404 85.6975 182.69 103.784 182.69C146.346 182.69 180.785 147.881 180.785 104.878C180.785 61.8672 146.339 27.0652 103.784 27.0652C83.3561 27.0652 64.8026 35.087 51.0266 48.1811L72.2663 69.6446C76.4846 73.9073 73.497 81.1955 67.532 81.1955H6.69574C2.9976 81.1955 0 78.1663 0 74.4292V12.9519C0 6.92403 7.21215 3.905 11.4305 8.16734L32.0918 29.0464C50.724 11.0527 75.9765 0 103.784 0C161.037 0 207.462 46.8481 207.568 104.679ZM131.859 137.996L135.97 132.655C139.376 128.231 138.587 121.854 134.208 118.413L117.175 105.025V60.8966C117.175 55.2912 112.679 50.7472 107.132 50.7472H100.436C94.8891 50.7472 90.3925 55.2912 90.3925 60.8966V118.262L117.765 139.777C122.144 143.218 128.454 142.421 131.859 137.996Z" fill="#5C5C5C"/>
</g>
</svg>
