<svg width="182" height="210" viewBox="0 0 182 210" fill="none" xmlns="http://www.w3.org/2000/svg">
<g id="&#240;&#159;&#166;&#134; icon &#34;User&#34;">
<path id="Vector" d="M127.134 124.542C115.499 124.542 109.904 131.097 90.81 131.097C71.7156 131.097 66.1616 124.542 54.486 124.542C24.4052 124.542 0 149.205 0 179.603V190.091C0 200.947 8.71614 209.755 19.4593 209.755H162.161C172.904 209.755 181.62 200.947 181.62 190.091V179.603C181.62 149.205 157.215 124.542 127.134 124.542ZM162.161 190.091H19.4593V179.603C19.4593 160.102 35.1889 144.207 54.486 144.207C60.4049 144.207 70.0129 150.761 90.81 150.761C111.769 150.761 121.175 144.207 127.134 144.207C146.431 144.207 162.161 160.102 162.161 179.603V190.091ZM90.81 117.987C123.039 117.987 149.188 91.563 149.188 58.9936C149.188 26.4242 123.039 0 90.81 0C58.5806 0 32.4321 26.4242 32.4321 58.9936C32.4321 91.563 58.5806 117.987 90.81 117.987ZM90.81 19.6645C112.256 19.6645 129.729 37.3217 129.729 58.9936C129.729 80.6656 112.256 98.3227 90.81 98.3227C69.3642 98.3227 51.8914 80.6656 51.8914 58.9936C51.8914 37.3217 69.3642 19.6645 90.81 19.6645Z" fill="#5C5C5C"/>
</g>
</svg>
