<svg width="120" height="120" viewBox="0 0 120 120" fill="none" xmlns="http://www.w3.org/2000/svg">
<g id="&#240;&#159;&#166;&#134; icon &#34;Twitter Square&#34;">
<path id="Vector" d="M107.143 0H12.8571C5.75893 0 0 5.75893 0 12.8571V107.143C0 114.241 5.75893 120 12.8571 120H107.143C114.241 120 120 114.241 120 107.143V12.8571C120 5.75893 114.241 0 107.143 0ZM94.0446 42.5357C94.0982 43.2857 94.0982 44.0625 94.0982 44.8125C94.0982 68.0357 76.4196 94.7946 44.1161 94.7946C34.1518 94.7946 24.9107 91.9018 17.1429 86.9196C18.5625 87.0804 19.9286 87.1339 21.375 87.1339C29.5982 87.1339 37.1518 84.3482 43.1786 79.6339C35.4643 79.4732 28.9821 74.4107 26.7589 67.4464C29.4643 67.8482 31.9018 67.8482 34.6875 67.125C26.6518 65.4911 20.625 58.4196 20.625 49.875V49.6607C22.9554 50.9732 25.6875 51.7768 28.5536 51.8839C26.144 50.2812 24.1687 48.1068 22.8039 45.5549C21.4392 43.003 20.7274 40.1529 20.7321 37.2589C20.7321 33.9911 21.5893 30.9911 23.1161 28.3929C31.7679 39.0536 44.7589 46.0179 59.3304 46.7679C56.8393 34.8482 65.7589 25.1786 76.4732 25.1786C81.5357 25.1786 86.0893 27.2946 89.3036 30.7232C93.2679 29.9732 97.0714 28.5 100.446 26.4911C99.1339 30.5625 96.375 33.9911 92.7321 36.1607C96.2679 35.7857 99.6964 34.7946 102.857 33.4286C100.473 36.9375 97.4732 40.0446 94.0446 42.5357Z" fill="black"/>
</g>
</svg>
