<svg width="243" height="215" viewBox="0 0 243 215" fill="none" xmlns="http://www.w3.org/2000/svg">
<g id="&#240;&#159;&#166;&#134; icon &#34;Heart&#34;">
<path id="Vector" d="M216.811 15.4485C189.473 -7.78024 147.237 -4.29115 121.081 22.6179C94.9257 -4.29115 52.6892 -7.82804 25.3514 15.4485C-10.2162 45.7033 -5.01346 95.0285 20.3379 121.173L103.297 206.584C108.027 211.459 114.365 214.183 121.081 214.183C127.845 214.183 134.135 211.507 138.865 206.632L221.824 121.221C247.128 95.0763 252.426 45.7511 216.811 15.4485ZM205.649 105.066L122.689 190.477C121.554 191.624 120.608 191.624 119.473 190.477L36.5136 105.066C19.2501 87.2856 15.7501 53.6374 39.9663 33.0374C58.3649 17.4081 86.7433 19.7501 104.527 38.0559L121.081 55.119L137.635 38.0559C155.514 19.6545 183.892 17.4081 202.196 32.9896C226.365 53.5896 222.77 87.429 205.649 105.066Z" fill="#5C5C5C"/>
</g>
</svg>
